# xmcd
#
# Track frame offsets: 
#        150
#        17731
#        31153
#        54308
#        66613
#        89365
#        108245
#        123620
#        139317
#        160593
#        175081
#        191072
#        211353
#        233515
#        252096
#        271727
#        284812
#
# Disc length: 4093 seconds
#
# Revision: 0
# Processed by: cddbd v1.5.2PL0 Copyright (c) Steve Scherf et al.
# Submitted via: ExactAudioCopy v0.95a4
#
DISCID=f20ffb11
DTITLE=Bill - Bill 60
DYEAR=1900
DGENRE=Blues
TTITLE0=01 - Deák Bill Gyula - Hatvan csapás
TTITLE1=02 - Deák Bill Gyula - A nagy generáció temetésére
TTITLE2=03 - Deák Bill Gyula - Kéne egy üveg bor
TTITLE3=04 - Deák Bill Gyula - Lát-e, aki lát
TTITLE4=05 - Deák Bil Gyula - Jó volna
TTITLE5=06 - Deák Bill Gyula - Péntek esti blues
TTITLE6=07 - Deák Bill Gyula - Anyám és apám
TTITLE7=08 - Deák Bill Gyula - Az országút elQttem
TTITLE8=09 - Deák Bill Gyula - A titkos lány
TTITLE9=10 - Deák Bill Gyula - Hóhér blues
TTITLE10=11 - Deák Bill Gyula - Bill kapitány imája
TTITLE11=12 - Deák Bill Gyula - Most vagy soha
TTITLE12=13 - Deák Bill Gyula - Angyalok asztalodon
TTITLE13=14 - Deák Bill Gyula - Intések fiamnak
TTITLE14=15 - Deák Bill Gyula - Nem vagyok eladó
TTITLE15=16 - Deák Bill Gyula - Soha és mindíg
TTITLE16=17 - Deák Bill Gyula - A zöld, a bíbor, a fekete
EXTD=
EXTT0=
EXTT1=
EXTT2=
EXTT3=
EXTT4=
EXTT5=
EXTT6=
EXTT7=
EXTT8=
EXTT9=
EXTT10=
EXTT11=
EXTT12=
EXTT13=
EXTT14=
EXTT15=
EXTT16=
PLAYORDER=
